<svg width="24" height="23" viewBox="0 0 24 23" fill="none" xmlns="http://www.w3.org/2000/svg">
<path d="M10 20.125H14C14 21.1792 13.1 22.0417 12 22.0417C10.9 22.0417 10 21.1792 10 20.125ZM21 18.2083V19.1667H3V18.2083L5 16.2917V10.5417C5 7.57084 7 4.98334 10 4.12084V3.83334C10 2.77917 10.9 1.91667 12 1.91667C13.1 1.91667 14 2.77917 14 3.83334V4.12084C17 4.98334 19 7.57084 19 10.5417V16.2917L21 18.2083ZM17 10.5417C17 7.85834 14.8 5.75001 12 5.75001C9.2 5.75001 7 7.85834 7 10.5417V17.25H17V10.5417Z" fill="black"/>
</svg>
