<svg width="26" height="26" viewBox="0 0 26 26" fill="none" xmlns="http://www.w3.org/2000/svg">
<path d="M2.88889 7.22223V23.1111H23.1111V7.22223H18.7778V16.4306C18.7778 16.9843 18.5491 17.3998 18.0917 17.6771C17.6342 17.9544 17.1648 17.9723 16.6833 17.7306L13 15.8889L9.31666 17.7306C8.83518 17.9713 8.36574 17.953 7.90833 17.6757C7.45092 17.3983 7.22222 16.9838 7.22222 16.432V7.22223H2.88889ZM2.88889 26C2.09444 26 1.41459 25.7174 0.849333 25.1521C0.284074 24.5868 0.000962962 23.9065 0 23.1111V5.09167C0 4.75463 0.0544073 4.42963 0.163222 4.11667C0.272037 3.80371 0.434296 3.51482 0.65 3.25001L2.45555 1.04723C2.72037 0.710192 3.05115 0.451156 3.44789 0.270119C3.84463 0.0890817 4.26015 -0.00095532 4.69444 7.64256e-06H21.3055C21.7389 7.64256e-06 22.1544 0.0905261 22.5521 0.271563C22.9498 0.4526 23.2806 0.711155 23.5444 1.04723L25.35 3.25001C25.5667 3.51482 25.7294 3.80371 25.8382 4.11667C25.947 4.42963 26.0009 4.75463 26 5.09167V23.1111C26 23.9056 25.7174 24.5859 25.1521 25.1521C24.5868 25.7183 23.9065 26.001 23.1111 26H2.88889ZM3.46667 4.33334H22.5333L21.3055 2.8889H4.69444L3.46667 4.33334ZM10.1111 7.22223V14.0833L13 12.6389L15.8889 14.0833V7.22223H10.1111Z" fill="black"/>
</svg>
