<svg width="28" height="28" viewBox="0 0 28 28" fill="none" xmlns="http://www.w3.org/2000/svg">
<path d="M18.2368 15.8579L18.2356 15.8584C17.5937 16.1359 16.4962 16.3189 14.5495 15.832L14.5494 15.832C12.3034 15.2715 10.7599 15.5994 9.66756 16.2771L9.66724 16.2773C9.51122 16.3745 9.36744 16.4767 9.23492 16.581C9.21155 16.3884 9.19988 16.1944 9.2 16.0001V15.9999C9.19933 14.7566 9.68111 13.5615 10.5439 12.6663C11.4067 11.7711 12.5832 11.2456 13.8256 11.2005C15.0681 11.1553 16.2797 11.594 17.2052 12.4242C18.1044 13.2308 18.6654 14.3459 18.7787 15.5459C18.6114 15.6713 18.4294 15.7761 18.2368 15.8579ZM14 8.8C13.0545 8.8 12.1182 8.98623 11.2447 9.34807C10.3711 9.7099 9.57741 10.2402 8.90883 10.9088C8.24025 11.5774 7.7099 12.3711 7.34807 13.2447C6.98623 14.1182 6.8 15.0545 6.8 16C6.8 16.9455 6.98623 17.8818 7.34807 18.7553C7.7099 19.6289 8.24025 20.4226 8.90883 21.0912C9.57741 21.7598 10.3711 22.2901 11.2447 22.6519C12.1182 23.0138 13.0545 23.2 14 23.2C15.9096 23.2 17.7409 22.4414 19.0912 21.0912C20.4414 19.7409 21.2 17.9096 21.2 16C21.2 14.0904 20.4414 12.2591 19.0912 10.9088C17.7409 9.55857 15.9096 8.8 14 8.8ZM9.20208 7.20208C9.52089 6.88327 9.7 6.45087 9.7 6C9.7 5.54913 9.52089 5.11673 9.20208 4.79792C8.88327 4.47911 8.45087 4.3 8 4.3C7.54913 4.3 7.11673 4.47911 6.79792 4.79792C6.47911 5.11673 6.3 5.54913 6.3 6C6.3 6.45087 6.47911 6.88327 6.79792 7.20208C7.11673 7.52089 7.54913 7.7 8 7.7C8.45087 7.7 8.88327 7.52089 9.20208 7.20208ZM15 4.8C14.6817 4.8 14.3765 4.92643 14.1515 5.15147C13.9264 5.37652 13.8 5.68174 13.8 6C13.8 6.31826 13.9264 6.62348 14.1515 6.84853C14.3765 7.07357 14.6817 7.2 15 7.2H20C20.3183 7.2 20.6235 7.07357 20.8485 6.84853C21.0736 6.62348 21.2 6.31826 21.2 6C21.2 5.68174 21.0736 5.37652 20.8485 5.15147C20.6235 4.92643 20.3183 4.8 20 4.8H15ZM5.5 0.8C4.25348 0.8 3.05802 1.29518 2.1766 2.1766C1.29518 3.05802 0.8 4.25348 0.8 5.5V22.5C0.8 23.7465 1.29518 24.942 2.1766 25.8234C3.05802 26.7048 4.25348 27.2 5.5 27.2H22.5C23.7465 27.2 24.942 26.7048 25.8234 25.8234C26.7048 24.942 27.2 23.7465 27.2 22.5V5.5C27.2 4.25348 26.7048 3.05802 25.8234 2.1766C24.942 1.29518 23.7465 0.8 22.5 0.8H5.5ZM3.2 5.5C3.2 4.89 3.44232 4.30499 3.87365 3.87365C4.30499 3.44232 4.89 3.2 5.5 3.2H22.5C23.11 3.2 23.695 3.44232 24.1263 3.87365C24.5577 4.30499 24.8 4.89 24.8 5.5V22.5C24.8 23.11 24.5577 23.695 24.1263 24.1263C23.695 24.5577 23.11 24.8 22.5 24.8H5.5C4.89 24.8 4.30499 24.5577 3.87365 24.1263C3.44232 23.695 3.2 23.11 3.2 22.5V5.5Z" fill="black" stroke="black" stroke-width="0.4"/>
</svg>
