<svg width="360" height="65" viewBox="0 0 360 65" fill="none" xmlns="http://www.w3.org/2000/svg">
<mask id="path-1-inside-1_100_181" fill="white">
<path d="M0 0H360V65H0V0Z"/>
</mask>
<path d="M0 0H360V65H0V0Z" fill="white"/>
<path d="M360 64H0V66H360V64Z" fill="#D9D9D9" mask="url(#path-1-inside-1_100_181)"/>
<path d="M84.7218 35.912V47.378H83.2398V35.912H84.7218ZM80.7568 36.081H82.2258V47.066H80.7568V40.969H79.2358V39.669H80.7568V36.081ZM78.2478 40.787C78.3951 40.787 78.5164 40.8607 78.6118 41.008L80.4058 43.725L79.2488 44.687L77.5068 41.918C77.4634 41.8573 77.4201 41.827 77.3768 41.827C77.3334 41.827 77.2901 41.8617 77.2468 41.931C77.0474 42.373 76.7961 42.828 76.4928 43.296C76.1981 43.764 75.8211 44.3013 75.3618 44.908L74.2568 43.959C74.8374 43.1963 75.2924 42.516 75.6218 41.918C75.9511 41.32 76.1851 40.7263 76.3238 40.137C76.4711 39.539 76.5448 38.876 76.5448 38.148V36.809H78.0268V38.122C78.0268 39.1707 77.8838 40.1457 77.5978 41.047L77.6628 41.086L77.8708 40.93C78.0094 40.8347 78.1351 40.787 78.2478 40.787ZM97.1836 40.046H95.4416V43.049H93.8946V35.912H95.4416V38.759H97.1836V40.046ZM92.8936 42.373C92.1829 42.4943 91.4246 42.5897 90.6186 42.659C89.8126 42.7283 88.8419 42.763 87.7066 42.763H86.4716V36.549H91.9186V37.797H87.9796V38.98H91.7496V40.228H87.9796V41.528C89.8169 41.5193 91.3899 41.3937 92.6986 41.151L92.8936 42.373ZM87.9016 43.647H95.4416V47.989H93.9206V44.947H87.9016V43.647ZM107.669 41.879H106.109V35.912H107.669V41.879ZM98.8684 42.204L97.7244 41.19C98.7211 40.4013 99.4274 39.6863 99.8434 39.045C100.259 38.4037 100.467 37.7017 100.467 36.939V36.198H102.027V37.043C102.027 37.8317 101.858 38.564 101.52 39.24L101.598 39.292L101.936 38.993C102.075 38.8803 102.214 38.824 102.352 38.824C102.474 38.824 102.599 38.876 102.729 38.98L104.848 40.839L103.743 41.944L101.507 39.851C101.455 39.799 101.395 39.773 101.325 39.773C101.265 39.773 101.213 39.799 101.169 39.851C100.918 40.2237 100.602 40.6007 100.22 40.982C99.8477 41.3547 99.3971 41.762 98.8684 42.204ZM107.929 46.702V47.924H101.143C100.485 47.924 100.155 47.5947 100.155 46.936V44.635H106.135V43.712H100.09V42.503H107.669V45.766H101.689V46.702H107.929Z" fill="#222222"/>
<path d="M263.268 44.83V46.13H252.556V44.83H257.132V42.295H254.051V36.679H261.825V37.992H255.611V40.969H261.903V42.295H258.692V44.83H263.268ZM274.053 35.912V47.378H272.519V40.852H270.387V39.552H272.519V35.912H274.053ZM268.658 40.657C268.814 40.657 268.944 40.7263 269.048 40.865L271.271 43.712L270.075 44.739L267.826 41.684C267.791 41.6407 267.748 41.619 267.696 41.619C267.644 41.619 267.605 41.6407 267.579 41.684C267.336 42.1607 267.033 42.6503 266.669 43.153C266.313 43.647 265.841 44.2407 265.252 44.934L264.056 43.933C264.74 43.179 265.282 42.503 265.681 41.905C266.079 41.2983 266.374 40.6917 266.565 40.085C266.755 39.4783 266.851 38.8067 266.851 38.07V36.666H268.411V38.057C268.411 39.1143 268.237 40.0893 267.891 40.982L267.982 41.047L268.255 40.813C268.385 40.709 268.519 40.657 268.658 40.657ZM286.761 39.578V40.878H285.188V44.713H283.654V35.912H285.188V39.578H286.761ZM280.794 37.927H276.283V36.653H282.315V37.433C282.315 38.5337 282.19 39.7123 281.938 40.969L280.456 40.774C280.656 39.89 280.768 38.941 280.794 37.927ZM283.043 42.776C282.107 42.9147 280.963 43.0273 279.611 43.114C278.268 43.192 276.907 43.231 275.529 43.231L275.399 41.944C275.945 41.944 276.756 41.9353 277.83 41.918V39.5H279.338V41.866C280.699 41.814 281.886 41.7187 282.9 41.58L283.043 42.776ZM279.195 46.351H285.422V47.625H278.636C277.978 47.625 277.648 47.2957 277.648 46.637V44.05H279.195V46.351Z" fill="#888888"/>
<path d="M21 63H161V65H21V63Z" fill="#FD786F"/>
</svg>
