<svg width="30" height="30" viewBox="0 0 30 30" fill="none" xmlns="http://www.w3.org/2000/svg">
<path d="M2.125 12.4C3.139 7.4392 6.896 3.469 11.7528 2.117C12.161 2.0039 12.3638 1.9467 12.4743 2.0676C12.5848 2.1898 12.5029 2.39 12.3417 2.793L11.225 5.25M17.725 2C22.6858 3.014 26.656 6.771 28.008 11.6278C28.1211 12.036 28.1783 12.2388 28.0574 12.3493C27.9352 12.4598 27.735 12.3779 27.332 12.2167L24.875 11.1M28.125 17.6C27.111 22.5608 23.354 26.531 18.4972 27.883C18.089 27.9961 17.8862 28.0533 17.7757 27.9324C17.6652 27.8102 17.7471 27.61 17.9083 27.207L19.025 24.75M12.525 28C7.5642 26.986 3.594 23.229 2.242 18.3722C2.1289 17.964 2.0717 17.7612 2.1926 17.6507C2.3148 17.5402 2.515 17.6221 2.918 17.7833L5.375 18.9M15.125 13.8287C13.4181 14.9987 11.3537 17.3127 10.575 20.85M11.7125 17.7352C9.0189 11.503 14.4529 9.4009 18.5882 9.1669C19.0874 9.1383 19.337 9.124 19.5151 9.306C19.6945 9.488 19.6841 9.748 19.6633 10.2654C19.493 14.5762 17.7744 20.5068 11.7125 17.7352Z" stroke="black" stroke-width="2.8" stroke-linecap="round" stroke-linejoin="round"/>
</svg>
