<svg width="100" height="58" viewBox="0 0 100 58" fill="none" xmlns="http://www.w3.org/2000/svg">
<path d="M46.1124 42.6635C35.1917 31.7428 35.0553 13.9004 45.9761 2.9796L48.9557 -5.75041e-06L53.7231 4.76738C64.195 15.2393 64.195 32.2177 53.723 42.6897V42.6897C51.6286 44.7841 48.2068 44.7579 46.1124 42.6635V42.6635Z" fill="url(#paint0_radial_81_127)"/>
<path d="M93.6645 25.2604C79.7481 20.1952 64.3604 27.3706 59.2952 41.2871V41.2871C58.2822 44.0704 59.752 47.1605 62.5353 48.1736V48.1736C77.0482 53.4558 93.2766 46.0389 98.5588 31.526L100 27.5663L93.6645 25.2604Z" fill="#6D6E71"/>
<path d="M6.3356 25.2604C20.2521 20.1952 35.6397 27.3706 40.7049 41.2871V41.2871C41.7179 44.0704 40.2481 47.1605 37.4648 48.1736V48.1736C22.9519 53.4558 6.72356 46.0389 1.4413 31.526L9.70416e-05 27.5663L6.3356 25.2604Z" fill="#559CB5"/>
<defs>
<radialGradient id="paint0_radial_81_127" cx="0" cy="0" r="1" gradientUnits="userSpaceOnUse" gradientTransform="translate(49.4432 23.241) rotate(45) scale(16.7786 16.0891)">
<stop stop-color="#F38D8D"/>
<stop offset="1" stop-color="#C20D40"/>
</radialGradient>
</defs>
</svg>
